<?xml version="1.0" encoding="utf-8"?>
<!-- Generator: Adobe Illustrator 22.0.0, SVG Export Plug-In . SVG Version: 6.00 Build 0)  -->
<svg version="1.1" id="Layer_1"
  xmlns="http://www.w3.org/2000/svg"
  xmlns:xlink="http://www.w3.org/1999/xlink" x="0px" y="0px" viewBox="0 0 500 500" style="enable-background:new 0 0 500 500;" xml:space="preserve">
  <style type="text/css">
	.st0{fill:#AAB1BA;}
	.st1{fill:#FDDF7F;}
	.st2{fill:#ECF4F7;}
	.st3{fill:#83E1E5;}
	.st4{fill:#1C1D21;}
	.st5{fill:none;}
  </style>
  <g>
    <path class="st1" d="M279.438,424.593l11.865-187.153h17.269c10.193,0,18.456-8.262,18.456-18.456v-82.761
		c0-12.722-10.313-23.035-23.035-23.035h-18.678c-8.415,0-15.587-5.316-18.345-12.772c8.735-4.637,15.073-12.758,16.619-22.483
		l5.069-31.893C292.098,24.402,273.822,5,250,5s-42.098,19.402-38.658,41.04l5.069,31.893c1.546,9.725,7.884,17.846,16.619,22.483
		c-2.758,7.456-9.93,12.772-18.345,12.772h-18.678c-12.722,0-23.035,10.313-23.035,23.035v82.761
		c0,10.193,8.263,18.456,18.456,18.456h17.269l11.865,187.153H279.438z"/>
  </g>
  <g>
    <path class="st2" d="M248.282,206.301l-19.806,10.412c-2.709,1.424-5.875-0.876-5.357-3.892l3.783-22.054
		c0.205-1.198-0.192-2.42-1.062-3.268l-16.023-15.619c-2.191-2.136-0.982-5.858,2.046-6.298l22.143-3.218
		c1.203-0.175,2.242-0.93,2.78-2.02l9.903-20.065c1.354-2.744,5.268-2.744,6.622,0l9.903,20.065c0.538,1.09,1.577,1.845,2.78,2.02
		l22.143,3.218c3.028,0.44,4.238,4.162,2.046,6.298l-16.023,15.619c-0.87,0.848-1.267,2.07-1.062,3.268l3.783,22.054
		c0.517,3.016-2.649,5.316-5.357,3.892l-19.806-10.412C250.643,205.735,249.357,205.735,248.282,206.301z"/>
  </g>
  <path class="st0" d="M317.796,467.501h-6.529v-32.292c0-5.863-4.753-10.616-10.616-10.616H199.349
	c-5.863,0-10.616,4.753-10.616,10.616v32.292h-6.529c-3.037,0-5.499,2.462-5.499,5.499v22h146.59v-22
	C323.295,469.963,320.833,467.501,317.796,467.501z"/>
  <path class="st4" d="M149.791,45.298h-6.535c-2.761,0-5-2.238-5-5s2.239-5,5-5h6.535v-6.534c0-2.762,2.239-5,5-5s5,2.238,5,5v6.534
	h6.534c2.761,0,5,2.238,5,5s-2.239,5-5,5h-6.534v6.535c0,2.762-2.239,5-5,5s-5-2.238-5-5V45.298z M356.743,278.061h-6.534v-6.534
	c0-2.762-2.238-5-5-5s-5,2.238-5,5v6.534h-6.534c-2.762,0-5,2.238-5,5s2.238,5,5,5h6.534v6.535c0,2.762,2.238,5,5,5s5-2.238,5-5
	v-6.535h6.534c2.762,0,5-2.238,5-5S359.505,278.061,356.743,278.061z M167.972,136.223c0-15.459,12.576-28.035,28.035-28.035h18.678
	c4.722,0,9.086-2.322,11.783-6.032c-7.872-5.573-13.473-13.862-14.995-23.438l-5.069-31.893
	c-1.792-11.273,1.416-22.395,9.032-31.316C223.848,5.652,236.447,0,250,0c13.554,0,26.152,5.653,34.565,15.509
	c7.615,8.922,10.822,20.044,9.031,31.316l-5.068,31.893c-1.522,9.575-7.124,17.864-14.996,23.438
	c2.697,3.71,7.061,6.032,11.783,6.032h18.678c15.459,0,28.035,12.576,28.035,28.035v82.762c0,12.935-10.522,23.457-23.456,23.457
	h-12.576l-10.436,164.606c-0.168,2.648-2.368,4.684-4.985,4.684c-0.106,0-0.214-0.003-0.321-0.01
	c-2.756-0.175-4.849-2.551-4.674-5.307l10.396-163.975h-5.005c-6.87,0-12.46-5.59-12.46-12.46v-9.203L250,211.047l-18.511,9.73
	v9.203c0,6.87-5.589,12.46-12.46,12.46h-5.005l10.396,163.975c0.175,2.756-1.917,5.132-4.673,5.307
	c-0.108,0.007-0.215,0.01-0.321,0.01c-2.617,0-4.817-2.035-4.985-4.684l-10.436-164.606h-12.576
	c-12.934,0-23.457-10.522-23.457-23.457V136.223z M254.045,201.875l17.46,9.18l-3.334-19.443c-0.483-2.819,0.451-5.695,2.498-7.691
	l14.127-13.771l-19.521-2.837c-2.829-0.409-5.277-2.187-6.545-4.754l-8.73-17.69l-8.73,17.689c-1.267,2.567-3.715,4.346-6.548,4.755
	l-19.518,2.837l14.125,13.77c2.049,1.997,2.984,4.874,2.5,7.693l-3.334,19.442l17.46-9.18c1.267-0.666,2.656-0.999,4.045-0.999
	C251.39,200.876,252.778,201.209,254.045,201.875z M221.349,77.147C223.382,89.944,235.7,99.595,250,99.595
	c14.3,0,26.617-9.65,28.651-22.447l5.068-31.893c1.325-8.335-1.075-16.594-6.761-23.253C270.449,14.374,260.622,10,250,10
	c-10.623,0-20.449,4.374-26.959,12.001c-5.685,6.66-8.086,14.919-6.761,23.254L221.349,77.147z M177.972,218.984
	c0,7.418,6.033,13.453,13.449,13.457c0.002,0,0.004-0.001,0.006-0.001h27.602c1.356,0,2.46-1.104,2.46-2.46v-7.835h-16.265
	c-4.887,0-8.863-3.976-8.863-8.863v-18.868c0-2.762,2.239-5,5-5s5,2.238,5,5v17.731h11.813c0.009-0.057,0.007-0.112,0.017-0.169
	l3.667-21.377l-15.531-15.14c-2.386-2.325-3.229-5.739-2.2-8.909c1.03-3.17,3.718-5.438,7.017-5.917l21.464-3.119l9.598-19.448
	c1.476-2.988,4.462-4.846,7.795-4.846c0,0,0.001,0,0.001,0c3.333,0.001,6.319,1.858,7.793,4.847l9.599,19.447l21.463,3.119
	c3.299,0.479,5.987,2.747,7.018,5.917c1.029,3.17,0.186,6.584-2.2,8.91L278.143,190.6l3.666,21.377
	c0.01,0.057,0.009,0.112,0.017,0.169h11.813v-17.731c0-2.762,2.238-5,5-5s5,2.238,5,5v18.868c0,4.888-3.976,8.863-8.863,8.863
	h-16.265v7.835c0,1.356,1.104,2.46,2.46,2.46h27.602c0.002,0,0.004,0.001,0.006,0.001c7.417-0.004,13.45-6.039,13.45-13.457v-82.762
	c0-9.944-8.091-18.035-18.035-18.035h-18.678c-8.433,0-16.197-4.388-20.654-11.301c-4.557,1.742-9.513,2.708-14.661,2.708
	s-10.105-0.966-14.661-2.708c-4.457,6.914-12.22,11.301-20.654,11.301h-18.678c-9.944,0-18.035,8.091-18.035,18.035V218.984z
	 M250,411.731c2.761,0,5-2.238,5-5V273.707l11.557-10.593c2.035-1.866,2.173-5.028,0.307-7.064
	c-1.866-2.035-5.028-2.173-7.064-0.307L250,264.726l-9.8-8.982c-2.035-1.866-5.198-1.729-7.064,0.307
	c-1.866,2.036-1.729,5.198,0.307,7.064L245,273.708v133.023C245,409.493,247.238,411.731,250,411.731z M133.071,490h-3.637
	c-2.761,0-5,2.238-5,5s2.239,5,5,5h3.637c2.761,0,5-2.238,5-5S135.833,490,133.071,490z M354.698,495c0,2.762-2.238,5-5,5h-48.226
	c-2.762,0-5-2.238-5-5s2.238-5,5-5h16.822v-17c0-0.275-0.224-0.499-0.499-0.499h-6.528H188.733h-6.529
	c-0.275,0-0.499,0.224-0.499,0.499v17h16.823c2.761,0,5,2.238,5,5s-2.239,5-5,5h-48.227c-2.761,0-5-2.238-5-5s2.239-5,5-5h21.404
	v-17c0-5.789,4.71-10.499,10.499-10.499h1.529v-27.292c0-8.61,7.005-15.616,15.616-15.616h101.302
	c8.61,0,15.616,7.006,15.616,15.616v27.292h1.528c5.789,0,10.499,4.71,10.499,10.499v17h21.403
	C352.46,490,354.698,492.238,354.698,495z M306.268,462.501v-27.292c0-3.097-2.52-5.616-5.616-5.616H199.349
	c-3.097,0-5.616,2.52-5.616,5.616v27.292H306.268z M370.565,490h-3.637c-2.762,0-5,2.238-5,5s2.238,5,5,5h3.637c2.762,0,5-2.238,5-5
	S373.327,490,370.565,490z M233.029,43.432h8.999c0.536,0,0.972,0.437,0.972,0.973v18.619c0,2.762,2.239,5,5,5s5-2.238,5-5V44.404
	c0-6.051-4.922-10.973-10.972-10.973h-8.999c-2.761,0-5,2.238-5,5S230.268,43.432,233.029,43.432z M263.144,43.432h5.353
	c2.762,0,5-2.238,5-5s-2.238-5-5-5h-5.353c-2.762,0-5,2.238-5,5S260.382,43.432,263.144,43.432z"/>
</svg>
